
      <svg
      style="display: none"
      xmlns="http://www.w3.org/2000/svg"
      xmlns:xlink="http://www.w3.org/1999/xlink">
      <symbol viewBox="0 0 40 40" id="ig-social-facebook_alt"
        xmlns="http://www.w3.org/2000/svg">
        <path d="M31 20.002C31 13.925 26.076 9 20 9S9 13.925 9 20.002c0 5.492 4.022 10.043 9.281 10.869v-7.689h-2.793v-3.18h2.793v-2.424c0-2.757 1.642-4.28 4.155-4.28 1.204 0 2.462.214 2.462.214v2.708h-1.387c-1.367 0-1.792.849-1.792 1.719v2.063h3.05l-.487 3.18h-2.563v7.689C26.979 30.045 31 25.494 31 20z"></path>
      </symbol>
      <symbol viewBox="0 0 40 40" id="ig-social-odnoklassniki"
        xmlns="http://www.w3.org/2000/svg">
        <path d="M19.93 20.131a6.467 6.467 0 0 1-2.384-.443 6.191 6.191 0 0 1-1.956-1.208 5.68 5.68 0 0 1-1.313-1.811 5.2 5.2 0 0 1-.483-2.206 5.279 5.279 0 0 1 .483-2.239 6.075 6.075 0 0 1 1.313-1.844 5.928 5.928 0 0 1 1.956-1.24 6.467 6.467 0 0 1 2.384-.44 6.608 6.608 0 0 1 2.423.443 5.645 5.645 0 0 1 1.941 1.24 6.266 6.266 0 0 1 1.288 1.844 5.279 5.279 0 0 1 .483 2.239 5.2 5.2 0 0 1-.483 2.206 5.732 5.732 0 0 1-3.229 3.019 6.608 6.608 0 0 1-2.423.44zm0-8.487a3.1 3.1 0 0 0-2.134.814 2.585 2.585 0 0 0-.91 2 2.616 2.616 0 0 0 .91 1.972 3.145 3.145 0 0 0 4.292 0 2.623 2.623 0 0 0 .9-1.972 2.593 2.593 0 0 0-.9-2 3.115 3.115 0 0 0-2.158-.814zm7.1 9.2a1.15 1.15 0 0 1 .017 1.384 7.066 7.066 0 0 1-1.643 1.257 8.473 8.473 0 0 1-2.19.813 16.292 16.292 0 0 1-2.093.362l1 .918 3.623 3.317a1.365 1.365 0 0 1 .419.967 1.16 1.16 0 0 1-.419.9l-.177.161a1.414 1.414 0 0 1-.966.371 1.472 1.472 0 0 1-.982-.371q-.741-.627-1.683-1.529t-2-1.852l-3.613 3.378a1.486 1.486 0 0 1-1.965 0l-.161-.161a1.142 1.142 0 0 1-.435-.9 1.34 1.34 0 0 1 .435-.967q.66-.627 1.626-1.513.968-.87 1.949-1.8l.966-.918q-.837-.081-2.045-.322a7.083 7.083 0 0 1-2.238-.853 7.873 7.873 0 0 1-1.6-1.257 1.158 1.158 0 0 1-.032-1.384 1.6 1.6 0 0 1 .95-.717 1.755 1.755 0 0 1 1.643.475 5.264 5.264 0 0 0 1.441.717 10.544 10.544 0 0 0 1.457.362 9.127 9.127 0 0 0 1.144.129l.467.016.467-.016a9.134 9.134 0 0 0 1.143-.129A10.521 10.521 0 0 0 23 21.315a5.278 5.278 0 0 0 1.441-.717 1.811 1.811 0 0 1 1.666-.475 1.518 1.518 0 0 1 .924.717z"></path>
      </symbol>
      <symbol viewBox="0 0 40 40" id="ig-social-twitter"
        xmlns="http://www.w3.org/2000/svg">
        <path d="M9.066 27.6a13.217 13.217 0 0 0 20.345-11.14q0-.3-.014-.6a9.428 9.428 0 0 0 2.318-2.4 9.318 9.318 0 0 1-2.669.731 4.664 4.664 0 0 0 2.044-2.571 9.289 9.289 0 0 1-2.951 1.127 4.65 4.65 0 0 0-7.918 4.24 13.191 13.191 0 0 1-9.578-4.857 4.652 4.652 0 0 0 1.437 6.2 4.613 4.613 0 0 1-2.1-.582v.059a4.649 4.649 0 0 0 3.72 4.556 4.667 4.667 0 0 1-2.1.08 4.652 4.652 0 0 0 4.341 3.227 9.316 9.316 0 0 1-5.771 1.989 9.421 9.421 0 0 1-1.104-.059z"></path>
      </symbol>
      <symbol viewBox="0 0 40 40" id="ig-social-vkontakte"
        xmlns="http://www.w3.org/2000/svg">
        <path d="M27.775 27.165h-.147a3.433 3.433 0 0 1-1.612-.7 9.1 9.1 0 0 1-1.257-1.2q-.3-.355-.769-.917a1.038 1.038 0 0 0-1.035-.444.654.654 0 0 0-.532.385 2.17 2.17 0 0 0-.177.754q-.03.429-.045.872a1.526 1.526 0 0 1-.192.74 1.364 1.364 0 0 1-1.242.473q-.947 0-1.774-.06a7.573 7.573 0 0 1-3.977-1.448A15.364 15.364 0 0 1 12.4 23a36.673 36.673 0 0 1-2.174-3.149 38.475 38.475 0 0 1-1.848-3.386q-.266-.562-.562-1.2a3.221 3.221 0 0 1-.3-1.375 1.559 1.559 0 0 1 1.035-.31q.621.014 1.271.014.563 0 1.346-.029a2.358 2.358 0 0 1 1.168.177 1.224 1.224 0 0 1 .5.666 10.049 10.049 0 0 0 .473.961q.444.975.887 1.744t1.006 1.568q.207.324.576.8a.907.907 0 0 0 .843.414q.386-.088.5-.9t.148-1.464q0-.739-.045-1.582a3.057 3.057 0 0 0-.251-1.227 1.043 1.043 0 0 0-.591-.488 3.054 3.054 0 0 1-.74-.34 1.549 1.549 0 0 1 1.168-.754 11.515 11.515 0 0 1 1.858-.14q.887 0 1.892.015a1.6 1.6 0 0 1 1.39.576 2.511 2.511 0 0 1 .207 1.538 14.107 14.107 0 0 0-.118 1.745q-.03.916-.03 1.73a1.4 1.4 0 0 0 .591 1.227 1.165 1.165 0 0 0 .784-.444q.311-.384.577-.709a15.588 15.588 0 0 0 1.02-1.553q.429-.755.9-1.759.207-.414.429-.976a1.051 1.051 0 0 1 .576-.68 2.609 2.609 0 0 1 1.3-.178q.8.06 1.538.059c.217 0 .463-.009.739-.029a7.186 7.186 0 0 1 .8-.015 2.892 2.892 0 0 1 .694.1.566.566 0 0 1 .4.295 1.359 1.359 0 0 1-.148 1.094 7.931 7.931 0 0 1-.5.976 15.145 15.145 0 0 1-1.138 1.627q-.578.71-1.228 1.537-.265.325-.65.828a1.538 1.538 0 0 0-.355 1.035 1.115 1.115 0 0 0 .37.739q.339.325.635.621.651.592 1.2 1.109a7.592 7.592 0 0 1 1.05 1.257 7.755 7.755 0 0 1 .562.739 1.132 1.132 0 0 1 .266.8.757.757 0 0 1-.636.68 5.409 5.409 0 0 1-1.331.148q-.753 0-1.508-.045a3.69 3.69 0 0 0-1.171.078z"></path>
      </symbol>
      <symbol viewBox="0 0 40 40" id="ig-icon-more"
        xmlns="http://www.w3.org/2000/svg">
        <circle cx="20" cy="19.667" r="1.999"></circle>
        <circle cx="27.998" cy="19.667" r="1.999"></circle>
        <circle cx="12.002" cy="19.667" r="1.999"></circle>
      </symbol>
    </svg>
